<svg version="1.2" xmlns="http://www.w3.org/2000/svg" viewBox="0 0 1048 516" width="1048" height="516">
	<title>LOGO LLC VERSIÓN SEP 2023-ai</title>
	<style>
		.s0 { fill: #061666 } 
		.s1 { fill: #d3ac07 } 
		.s2 { fill: none;stroke: #4d3d9a;stroke-linecap: round;stroke-linejoin: round;stroke-width: .8 } 
	</style>
	<g id="Carpeta 1">
		<g id="&lt;Group&gt;">
			<g id="&lt;Group&gt;">
				<g id="&lt;Group&gt;">
					<path id="&lt;Compound Path&gt;" class="s0" d="m561.7 176.4q-4.2-2.2-6.6-6.1-2.4-3.9-2.4-8.7 0-4.9 2.4-8.7 2.4-3.9 6.6-6.1 4.3-2.2 9.5-2.2 4.2 0 7.7 1.4 3.5 1.4 5.9 4.1l-4.1 3.8q-3.7-3.9-9.2-3.9-3.6 0-6.4 1.5-2.8 1.5-4.4 4.1-1.5 2.6-1.5 6 0 3.3 1.5 6 1.6 2.6 4.4 4.1 2.8 1.5 6.4 1.5 5.5 0 9.2-3.9l4.1 3.7q-2.4 2.7-5.9 4.2-3.5 1.4-7.8 1.4-5.2 0-9.4-2.2z"/>
					<path id="&lt;Compound Path&gt;" fill-rule="evenodd" class="s0" d="m596.9 176.4q-4.3-2.2-6.7-6.1-2.4-3.9-2.4-8.7 0-4.8 2.4-8.7 2.4-3.9 6.7-6.1 4.2-2.2 9.5-2.2 5.3 0 9.5 2.2 4.3 2.2 6.7 6.1 2.4 3.8 2.4 8.7 0 4.8-2.4 8.7-2.4 3.9-6.7 6.1-4.2 2.2-9.5 2.2-5.3 0-9.5-2.2zm15.7-4.7q2.8-1.5 4.4-4.1 1.5-2.7 1.5-6 0-3.3-1.5-6-1.6-2.6-4.4-4.1-2.7-1.5-6.2-1.5-3.5 0-6.2 1.5-2.8 1.5-4.4 4.1-1.5 2.7-1.5 6 0 3.3 1.5 6 1.6 2.6 4.4 4.1 2.7 1.5 6.2 1.5 3.5 0 6.2-1.5z"/>
					<path id="&lt;Compound Path&gt;" class="s0" d="m663.5 178.1v-21.9l-11.4 18.1h-2.8l-11.4-17.8v21.6h-6.1v-33h5.3l13.7 21.9 13.4-21.9h5.3l0.1 33z"/>
					<path id="&lt;Compound Path&gt;" class="s0" d="m710.6 178.1v-21.9l-11.4 18.1h-2.8l-11.4-17.8v21.6h-6.1v-33h5.3l13.7 21.9 13.4-21.9h5.3l0.1 33z"/>
					<path id="&lt;Compound Path&gt;" class="s0" d="m729.7 174.7q-4-3.8-4-11v-18.6h6.4v18.4q0 9.7 8.8 9.7 8.7 0 8.7-9.7v-18.4h6.3v18.6q0 7.2-3.9 11-4 3.9-11.2 3.9-7.1 0-11.1-3.9z"/>
					<path id="&lt;Compound Path&gt;" class="s0" d="m795.6 145.1v33h-5.3l-19-22.4v22.4h-6.4v-33h5.3l19 22.3v-22.3z"/>
					<path id="&lt;Compound Path&gt;" class="s0" d="m804.8 145.1h6.5v33h-6.5z"/>
					<path id="&lt;Compound Path&gt;" class="s0" d="m827.6 150.3h-11.5v-5.2h29.3v5.2h-11.4v27.8h-6.4z"/>
					<path id="&lt;Compound Path&gt;" class="s0" d="m864.7 166.4v11.7h-6.4v-11.6l-13.6-21.4h6.8l10.2 16.1 10.2-16.1h6.3z"/>
				</g>
			</g>
			<g id="&lt;Group&gt;">
				<g id="&lt;Group&gt;">
					<path id="&lt;Compound Path&gt;" class="s0" d="m555.2 193.8h6.4v33h-6.4z"/>
					<path id="&lt;Compound Path&gt;" class="s0" d="m601.6 193.8v33h-5.3l-19-22.4v22.4h-6.4v-33h5.3l19 22.3v-22.3z"/>
					<path id="&lt;Compound Path&gt;" class="s0" d="m617.8 199h-11.4v-5.2h29.3v5.2h-11.4v27.8h-6.5z"/>
					<path id="&lt;Compound Path&gt;" class="s0" d="m666.4 221.7v5.1h-25.9v-33h25.2v5.1h-18.8v8.6h16.7v5.1h-16.7v9.1z"/>
					<path id="&lt;Compound Path&gt;" fill-rule="evenodd" class="s0" d="m696.2 226.8l-7.1-9.7q-0.4 0.1-1.3 0.1h-7.8v9.6h-6.4v-33h14.2q4.5 0 7.8 1.4 3.3 1.4 5.1 4.1 1.8 2.6 1.8 6.2 0 3.8-1.9 6.4-1.9 2.7-5.5 4.1l8 10.8zm-2.4-26.1q-2.1-1.7-6.3-1.7h-7.5v13.1h7.5q4.2 0 6.3-1.7 2.2-1.7 2.2-4.9 0-3.1-2.2-4.8z"/>
					<path id="&lt;Compound Path&gt;" class="s0" d="m735.5 221.7v5.1h-25.9v-33h25.2v5.1h-18.8v8.6h16.7v5.1h-16.7v9.1z"/>
					<path id="&lt;Compound Path&gt;" class="s0" d="m745.6 226.2q-3.7-1.1-5.8-2.9l2.2-4.8q2.1 1.6 5.2 2.7 3.1 1 6.2 1 3.8 0 5.7-1.2 1.9-1.2 1.9-3.1 0-1.4-1.1-2.3-1-1-2.6-1.5-1.7-0.5-4.5-1.2-3.9-0.9-6.4-1.8-2.4-0.9-4.2-2.8-1.7-1.9-1.7-5.1 0-2.8 1.5-5 1.6-2.2 4.7-3.6 3.2-1.3 7.7-1.3 3.2 0 6.2 0.8 3.1 0.7 5.3 2.1l-2 4.8q-2.3-1.3-4.8-1.9-2.4-0.7-4.8-0.7-3.7 0-5.6 1.2-1.8 1.3-1.8 3.3 0 1.4 1 2.3 1.1 0.9 2.7 1.4 1.6 0.5 4.4 1.2 3.9 0.8 6.4 1.8 2.4 0.9 4.2 2.8 1.7 1.9 1.7 5.1 0 2.7-1.5 4.9-1.6 2.2-4.7 3.5-3.2 1.4-7.7 1.4-4 0-7.8-1.1z"/>
					<path id="&lt;Compound Path&gt;" class="s0" d="m780.2 199h-11.5v-5.2h29.3v5.2h-11.4v27.8h-6.4z"/>
					<path id="&lt;Compound Path&gt;" class="s0" d="m561.7 281.7q-4.2-2.2-6.6-6.1-2.4-3.9-2.4-8.7 0-4.9 2.4-8.8 2.4-3.8 6.6-6 4.3-2.2 9.5-2.2 4.2 0 7.7 1.4 3.5 1.4 5.9 4.1l-4.1 3.7q-3.7-3.8-9.2-3.8-3.6 0-6.4 1.5-2.8 1.4-4.4 4.1-1.5 2.6-1.5 6 0 3.3 1.5 6 1.6 2.6 4.4 4.1 2.8 1.5 6.4 1.5 5.5 0 9.2-3.9l4.1 3.7q-2.4 2.7-5.9 4.1-3.5 1.4-7.8 1.4-5.2 0-9.4-2.1z"/>
					<path id="&lt;Compound Path&gt;" fill-rule="evenodd" class="s0" d="m596.9 281.7q-4.3-2.2-6.7-6.1-2.4-3.9-2.4-8.7 0-4.8 2.4-8.7 2.4-3.9 6.7-6.1 4.2-2.2 9.5-2.2 5.3 0 9.5 2.2 4.3 2.2 6.7 6 2.4 3.9 2.4 8.8 0 4.8-2.4 8.7-2.4 3.9-6.7 6.1-4.2 2.1-9.5 2.1-5.3 0-9.5-2.1zm15.7-4.7q2.8-1.5 4.4-4.2 1.5-2.6 1.5-5.9 0-3.3-1.5-6-1.6-2.7-4.4-4.1-2.7-1.5-6.2-1.5-3.5 0-6.2 1.5-2.8 1.4-4.4 4.1-1.5 2.7-1.5 6 0 3.3 1.5 5.9 1.6 2.7 4.4 4.2 2.7 1.5 6.2 1.5 3.5 0 6.2-1.5z"/>
					<path id="&lt;Compound Path&gt;" class="s0" d="m662.5 250.4v33h-5.3l-19-22.4v22.4h-6.4v-33h5.3l19 22.3v-22.3z"/>
					<path id="&lt;Compound Path&gt;" class="s0" d="m702.4 250.4v33h-5.3l-19-22.4v22.4h-6.4v-33h5.3l19.1 22.3v-22.3z"/>
					<path id="&lt;Compound Path&gt;" class="s0" d="m737.6 278.2v5.2h-25.9v-33h25.2v5.1h-18.8v8.6h16.7v5h-16.7v9.1z"/>
					<path id="&lt;Compound Path&gt;" class="s0" d="m751.1 281.7q-4.2-2.2-6.6-6.1-2.4-3.9-2.4-8.7 0-4.9 2.4-8.8 2.5-3.8 6.7-6 4.2-2.2 9.4-2.2 4.3 0 7.8 1.4 3.5 1.4 5.9 4.1l-4.2 3.7q-3.7-3.8-9.2-3.8-3.5 0-6.4 1.5-2.8 1.4-4.3 4.1-1.6 2.6-1.6 6 0 3.3 1.6 6 1.5 2.6 4.3 4.1 2.9 1.5 6.4 1.5 5.5 0 9.2-3.9l4.2 3.7q-2.4 2.7-6 4.1-3.5 1.4-7.7 1.4-5.3 0-9.5-2.1z"/>
					<path id="&lt;Compound Path&gt;" class="s0" d="m787 255.6h-11.4v-5.2h29.3v5.2h-11.4v27.8h-6.5z"/>
					<path id="&lt;Compound Path&gt;" class="s0" d="m809.7 250.4h6.4v33h-6.4z"/>
					<path id="&lt;Compound Path&gt;" fill-rule="evenodd" class="s0" d="m832.1 281.7q-4.3-2.2-6.7-6.1-2.4-3.9-2.4-8.7 0-4.8 2.4-8.7 2.4-3.9 6.7-6.1 4.2-2.2 9.5-2.2 5.3 0 9.5 2.2 4.2 2.2 6.7 6 2.4 3.9 2.4 8.8 0 4.8-2.4 8.7-2.5 3.9-6.7 6.1-4.2 2.1-9.5 2.1-5.3 0-9.5-2.1zm15.7-4.7q2.8-1.5 4.3-4.2 1.6-2.6 1.6-5.9 0-3.3-1.6-6-1.5-2.7-4.3-4.1-2.8-1.5-6.2-1.5-3.5 0-6.2 1.5-2.8 1.4-4.4 4.1-1.5 2.7-1.5 6 0 3.3 1.5 5.9 1.6 2.7 4.4 4.2 2.7 1.5 6.2 1.5 3.4 0 6.2-1.5z"/>
					<path id="&lt;Compound Path&gt;" class="s0" d="m897.7 250.4v33h-5.3l-19.1-22.4v22.4h-6.3v-33h5.3l19 22.3v-22.3z"/>
				</g>
			</g>
			<g id="&lt;Group&gt;">
				<g id="&lt;Group&gt;">
					<path id="&lt;Compound Path&gt;" class="s0" d="m557.7 302.4h29.5v61.9h39.6v21.9h-69.1z"/>
					<path id="&lt;Compound Path&gt;" class="s0" d="m634.9 302.4h29.5v61.9h39.6v21.9h-69.1z"/>
					<path id="&lt;Compound Path&gt;" class="s0" d="m731.2 382.5q-11.2-5.5-17.5-15.5-6.3-10-6.3-22.7 0-12.7 6.3-22.7 6.3-10 17.5-15.6 11.1-5.5 25-5.5 12.8 0 22.8 4.3 10 4.3 16.5 12.4l-18.6 16q-8.2-9.9-19.2-9.9-9.3 0-14.9 5.7-5.6 5.7-5.6 15.3 0 9.6 5.6 15.2 5.6 5.7 14.9 5.7 11 0 19.2-9.8l18.6 15.9q-6.5 8.2-16.5 12.5-10 4.3-22.8 4.3-13.9 0-25-5.6z"/>
				</g>
			</g>
			<g id="&lt;Group&gt;">
				<g id="&lt;Group&gt;">
					<path id="&lt;Compound Path&gt;" class="s0" d="m549.8 406.6l-10.9 25.1h-4.6l-10.9-25.1h5l8.4 19.4 8.4-19.4z"/>
					<path id="&lt;Compound Path&gt;" fill-rule="evenodd" class="s0" d="m568.5 423.6h-15q0.4 2.1 2.1 3.3 1.6 1.3 4.1 1.3 3.2 0 5.2-2.1l2.4 2.8q-1.3 1.5-3.2 2.3-2 0.8-4.5 0.8-3.1 0-5.5-1.3-2.4-1.2-3.7-3.5-1.4-2.2-1.4-5 0-2.8 1.3-5.1 1.3-2.2 3.5-3.5 2.3-1.2 5.1-1.2 2.8 0 5 1.2 2.2 1.2 3.5 3.5 1.2 2.2 1.2 5.2 0 0.4-0.1 1.3zm-13.2-6.4q-1.5 1.3-1.8 3.4h10.8q-0.2-2.1-1.7-3.4-1.5-1.2-3.7-1.2-2.1 0-3.6 1.2z"/>
					<path id="&lt;Compound Path&gt;" class="s0" d="m584.4 430.7q-0.8 0.6-1.9 0.9-1.2 0.4-2.4 0.4-3.2 0-4.9-1.7-1.7-1.6-1.7-4.8v-9.2h-3.1v-3.6h3.1v-4.3h4.5v4.3h5.1v3.6h-5.1v9.1q0 1.4 0.7 2.1 0.6 0.8 1.9 0.8 1.5 0 2.5-0.8z"/>
					<path id="&lt;Compound Path&gt;" fill-rule="evenodd" class="s0" d="m605.3 423.6h-15q0.4 2.1 2.1 3.3 1.7 1.3 4.1 1.3 3.2 0 5.2-2.1l2.4 2.8q-1.3 1.5-3.2 2.3-2 0.8-4.5 0.8-3.1 0-5.5-1.3-2.4-1.2-3.7-3.5-1.3-2.2-1.3-5 0-2.8 1.2-5.1 1.3-2.2 3.6-3.5 2.2-1.2 5-1.2 2.8 0 5 1.2 2.2 1.2 3.5 3.5 1.2 2.2 1.2 5.2 0 0.4-0.1 1.3zm-13.2-6.4q-1.5 1.3-1.8 3.4h10.9q-0.3-2.1-1.8-3.4-1.5-1.2-3.7-1.2-2.1 0-3.6 1.2z"/>
					<path id="&lt;Compound Path&gt;" class="s0" d="m620.8 412.4v4.2q-0.6-0.1-1.1-0.1-2.6 0-4 1.6-1.5 1.5-1.5 4.3v9.3h-4.5v-19.1h4.3v2.8q1.9-3 6.8-3z"/>
					<path id="&lt;Compound Path&gt;" fill-rule="evenodd" class="s0" d="m638.2 414.4q2.3 2 2.3 6.1v11.2h-4.3v-2.3q-0.8 1.2-2.3 1.9-1.5 0.7-3.7 0.7-2.1 0-3.7-0.8-1.6-0.7-2.5-2-0.9-1.3-0.9-3 0-2.5 1.9-4.1 1.9-1.6 6.1-1.6h4.9v-0.2q0-2-1.2-3.1-1.2-1.1-3.6-1.1-1.6 0-3.1 0.5-1.6 0.5-2.7 1.4l-1.7-3.3q1.5-1.1 3.6-1.7 2.1-0.6 4.5-0.6 4.2 0 6.4 2zm-4 13.5q1.3-0.7 1.8-2.2v-2.2h-4.6q-3.9 0-3.9 2.6 0 1.2 1 1.9 0.9 0.7 2.7 0.7 1.6 0 3-0.8z"/>
					<path id="&lt;Compound Path&gt;" class="s0" d="m662.9 414.5q2.1 2.1 2.1 6.3v10.9h-4.4v-10.4q0-2.5-1.2-3.7-1.2-1.3-3.4-1.3-2.5 0-3.9 1.5-1.4 1.5-1.4 4.2v9.7h-4.5v-19.1h4.3v2.5q1.1-1.4 2.8-2 1.6-0.7 3.8-0.7 3.6 0 5.8 2.1z"/>
					<path id="&lt;Compound Path&gt;" class="s0" d="m669.8 406.6h3.9l-0.4 10h-3.2z"/>
					<path id="&lt;Compound Path&gt;" class="s0" d="m680 431.4q-2.2-0.7-3.6-1.6l1.7-3.4q1.3 0.9 3.1 1.4 1.9 0.5 3.6 0.5 4 0 4-2.1 0-1-1-1.4-1-0.4-3.3-0.7-2.3-0.4-3.8-0.9-1.5-0.4-2.6-1.6-1.1-1.2-1.1-3.2 0-2.8 2.3-4.4 2.2-1.6 6.1-1.6 2 0 4 0.4 1.9 0.5 3.2 1.2l-1.7 3.4q-2.5-1.4-5.5-1.4-2 0-3 0.6-1 0.6-1 1.5 0 1.1 1.1 1.6 1.1 0.4 3.3 0.8 2.3 0.4 3.8 0.8 1.5 0.5 2.5 1.6 1.1 1.1 1.1 3.2 0 2.6-2.3 4.3-2.4 1.6-6.4 1.6-2.3 0-4.5-0.6z"/>
					<path id="&lt;Compound Path&gt;" class="s0" d="m744 406.6l-8.3 25.1h-4.9l-6.2-18.5-6.3 18.5h-5l-8.3-25.1h4.8l6.2 19.1 6.5-19.1h4.3l6.4 19.2 6.4-19.2z"/>
					<path id="&lt;Compound Path&gt;" fill-rule="evenodd" class="s0" d="m749.3 430.7q-2.3-1.2-3.6-3.5-1.3-2.2-1.3-5 0-2.9 1.3-5.1 1.3-2.2 3.6-3.5 2.3-1.2 5.2-1.2 3 0 5.3 1.2 2.3 1.3 3.6 3.5 1.3 2.2 1.3 5.1 0 2.8-1.3 5-1.3 2.3-3.6 3.5-2.3 1.3-5.3 1.3-2.9 0-5.2-1.3zm9.3-4.2q1.6-1.7 1.6-4.3 0-2.7-1.6-4.4-1.6-1.6-4.1-1.6-2.4 0-4 1.6-1.6 1.7-1.6 4.4 0 2.6 1.6 4.3 1.6 1.6 4 1.6 2.5 0 4.1-1.6z"/>
					<path id="&lt;Compound Path&gt;" class="s0" d="m798.9 414.5q2.1 2.1 2.1 6.3v10.9h-4.5v-10.4q0-2.5-1.1-3.7-1.1-1.3-3.2-1.3-2.2 0-3.6 1.5-1.3 1.5-1.3 4.2v9.7h-4.5v-10.4q0-2.5-1.1-3.7-1.1-1.3-3.2-1.3-2.3 0-3.6 1.4-1.4 1.5-1.4 4.3v9.7h-4.5v-19.1h4.3v2.4q1.1-1.3 2.7-1.9 1.6-0.7 3.6-0.7 2.1 0 3.8 0.8 1.6 0.8 2.6 2.4 1.2-1.5 3.1-2.4 1.8-0.8 4.1-0.8 3.6 0 5.7 2.1z"/>
					<path id="&lt;Compound Path&gt;" fill-rule="evenodd" class="s0" d="m820.5 414.4q2.2 2 2.2 6.1v11.2h-4.2v-2.3q-0.8 1.2-2.3 1.9-1.5 0.7-3.7 0.7-2.1 0-3.8-0.8-1.6-0.7-2.4-2-0.9-1.3-0.9-3 0-2.5 1.9-4.1 1.9-1.6 6-1.6h5v-0.2q0-2-1.2-3.1-1.2-1.1-3.6-1.1-1.6 0-3.2 0.5-1.5 0.5-2.6 1.4l-1.7-3.3q1.5-1.1 3.6-1.7 2.1-0.6 4.4-0.6 4.3 0 6.5 2zm-4.1 13.5q1.3-0.7 1.9-2.2v-2.2h-4.6q-3.9 0-3.9 2.6 0 1.2 1 1.9 0.9 0.7 2.6 0.7 1.7 0 3-0.8z"/>
					<path id="&lt;Compound Path&gt;" class="s0" d="m845.1 414.5q2.2 2.1 2.2 6.3v10.9h-4.5v-10.4q0-2.5-1.1-3.7-1.2-1.3-3.4-1.3-2.5 0-3.9 1.5-1.4 1.5-1.4 4.2v9.7h-4.5v-19.1h4.2v2.5q1.1-1.4 2.8-2 1.7-0.7 3.8-0.7 3.6 0 5.8 2.1z"/>
					<path id="&lt;Compound Path&gt;" class="s0" d="m868.1 430.4q-3.1-1.7-4.8-4.6-1.8-2.9-1.8-6.6 0-3.7 1.8-6.6 1.7-3 4.8-4.6 3.1-1.7 6.9-1.7 3 0 5.6 1.1 2.5 1 4.3 3.1l-3 2.8q-2.8-2.9-6.7-2.9-2.6 0-4.6 1.1-2.1 1.1-3.2 3.1-1.2 2-1.2 4.6 0 2.5 1.2 4.5 1.1 2 3.2 3.2 2 1.1 4.6 1.1 3.9 0 6.7-3l3 2.9q-1.8 2-4.3 3.1-2.6 1.1-5.7 1.1-3.8 0-6.8-1.7z"/>
					<path id="&lt;Compound Path&gt;" fill-rule="evenodd" class="s0" d="m891.6 430.7q-2.4-1.2-3.7-3.5-1.3-2.2-1.3-5 0-2.9 1.3-5.1 1.3-2.2 3.7-3.5 2.3-1.2 5.2-1.2 2.9 0 5.3 1.2 2.3 1.3 3.6 3.5 1.3 2.2 1.3 5.1 0 2.8-1.3 5-1.3 2.3-3.6 3.5-2.4 1.3-5.3 1.3-2.9 0-5.2-1.3zm9.3-4.2q1.6-1.7 1.6-4.3 0-2.7-1.6-4.4-1.6-1.6-4.1-1.6-2.5 0-4.1 1.6-1.6 1.7-1.6 4.4 0 2.6 1.6 4.3 1.6 1.6 4.1 1.6 2.5 0 4.1-1.6z"/>
					<path id="&lt;Compound Path&gt;" class="s0" d="m941.2 414.5q2.1 2.1 2.1 6.3v10.9h-4.5v-10.4q0-2.5-1.1-3.7-1.1-1.3-3.2-1.3-2.2 0-3.6 1.5-1.4 1.5-1.4 4.2v9.7h-4.4v-10.4q0-2.5-1.2-3.7-1.1-1.3-3.1-1.3-2.3 0-3.7 1.4-1.3 1.5-1.3 4.3v9.7h-4.5v-19.1h4.3v2.4q1-1.3 2.7-1.9 1.6-0.7 3.5-0.7 2.2 0 3.8 0.8 1.7 0.8 2.7 2.4 1.2-1.5 3-2.4 1.9-0.8 4.1-0.8 3.7 0 5.8 2.1z"/>
					<path id="&lt;Compound Path&gt;" fill-rule="evenodd" class="s0" d="m964.6 413.6q2.2 1.2 3.5 3.4 1.2 2.3 1.2 5.2 0 2.9-1.2 5.1-1.3 2.2-3.5 3.4-2.2 1.3-5 1.3-3.9 0-6.1-2.6v9.3h-4.5v-26.1h4.3v2.5q1.1-1.4 2.7-2 1.6-0.7 3.6-0.7 2.8 0 5 1.2zm-1.4 12.9q1.6-1.7 1.6-4.3 0-2.7-1.6-4.4-1.6-1.6-4.1-1.6-1.6 0-2.9 0.7-1.3 0.7-2 2.1-0.8 1.4-0.8 3.2 0 1.7 0.8 3.1 0.7 1.4 2 2.1 1.3 0.7 2.9 0.7 2.5 0 4.1-1.6z"/>
					<path id="&lt;Compound Path&gt;" fill-rule="evenodd" class="s0" d="m987.1 414.4q2.2 2 2.2 6.1v11.2h-4.2v-2.3q-0.8 1.2-2.3 1.9-1.6 0.7-3.7 0.7-2.2 0-3.8-0.8-1.6-0.7-2.5-2-0.8-1.3-0.8-3 0-2.5 1.9-4.1 1.9-1.6 6-1.6h5v-0.2q0-2-1.2-3.1-1.2-1.1-3.6-1.1-1.6 0-3.2 0.5-1.5 0.5-2.6 1.4l-1.8-3.3q1.5-1.1 3.7-1.7 2.1-0.6 4.4-0.6 4.3 0 6.5 2zm-4.1 13.5q1.3-0.7 1.9-2.2v-2.2h-4.7q-3.8 0-3.8 2.6 0 1.2 0.9 1.9 1 0.7 2.7 0.7 1.7 0 3-0.8z"/>
					<path id="&lt;Compound Path&gt;" class="s0" d="m1011.7 414.5q2.2 2.1 2.2 6.3v10.9h-4.5v-10.4q0-2.5-1.2-3.7-1.1-1.3-3.3-1.3-2.5 0-3.9 1.5-1.5 1.5-1.5 4.2v9.7h-4.4v-19.1h4.2v2.5q1.1-1.4 2.8-2 1.7-0.7 3.8-0.7 3.6 0 5.8 2.1z"/>
					<path id="&lt;Compound Path&gt;" class="s0" d="m1037.1 412.6l-8.9 20.7q-1.3 3.1-3 4.3-1.8 1.3-4.4 1.3-1.4 0-2.8-0.5-1.4-0.4-2.3-1.2l1.8-3.3q0.6 0.6 1.5 0.9 0.9 0.4 1.8 0.4 1.2 0 1.9-0.6 0.8-0.6 1.4-2.1l0.4-0.7-8.4-19.2h4.7l6 14.1 6-14.1z"/>
				</g>
			</g>
		</g>
		<g id="&lt;Group&gt;">
			<path id="&lt;Path&gt;" class="s1" d="m291 470.4c-1-0.9-1.7-2.1-2.4-3.3l-1-1.8-0.9-1.8c-1.2-2.5-2.2-5-3.2-7.6-1.9-5.1-3.4-10.3-4.9-15.6q-2.2-7.9-4-15.8c-1.2-5.4-2.3-10.7-3.4-16l16.5-1.2c-0.3 5.3-0.6 10.6-0.7 15.9q-0.3 8-0.2 15.9c0.1 5.3 0.3 10.6 0.8 15.9q0.3 4 1 7.9l0.4 1.9 0.5 1.9c0.4 1.3 0.8 2.6 1.5 3.7z"/>
			<path id="&lt;Path&gt;" class="s1" d="m243.1 192.1c0.2 5.6-0.4 11.3-1.2 16.9-0.3 2.8-0.9 5.6-1.4 8.4-0.6 2.7-1.2 5.5-1.8 8.2-2.8 11-6.5 21.7-10.7 32.1-1.1 2.6-2.3 5.2-3.4 7.8-1.2 2.5-2.3 5.1-3.6 7.6-1.2 2.5-2.5 5-3.8 7.5-1.3 2.5-2.5 5-4 7.5l-4.2 7.3c-1.4 2.4-2.8 4.8-4.4 7.2-3 4.7-6.1 9.4-9.3 14l-4.9 6.8-5 6.7c-3.5 4.5-7.1 8.8-10.7 13.1l-2.7 3.3c-0.1 0.1-0.2 0.3-0.4 0.4l-0.2 0.3-0.5 0.6q-0.6 0.6-1.2 1.3c-1.5 1.9-3 3.8-4.4 5.9-2.9 4-5.6 8.2-7.9 12.6-2.4 4.3-4.3 8.9-5.9 13.5-0.9 2.3-1.5 4.7-2 7.1-0.3 1.2-0.5 2.4-0.8 3.6l-0.5 3.7q-0.9 7.5 0.3 15.3c0.7 5.1 2.2 10.4 4.2 15.7-8.5-7.4-14.6-18.4-16.7-30.4-1.1-6-1.2-12.2-0.6-18.3l0.3-2.3q0.2-1.1 0.3-2.2c0.3-1.5 0.6-3 0.9-4.5 0.3-1.5 0.7-3 1.1-4.4 0.4-1.5 0.8-3 1.3-4.4 1-2.9 2.1-5.7 3.3-8.5q1.8-4.1 3.9-8.1c1.5-2.6 3-5.3 4.7-7.8q0.7-1 1.4-2l1.4-1.9 2.3-3.3c3.1-4.3 6.2-8.6 9.4-12.9l4.6-6.6 4.6-6.6c12.3-17.6 24.3-35.3 35.7-53.5 5.7-9.1 11.3-18.3 16.8-27.7 5.4-9.4 10.7-18.9 15.7-29z"/>
			<path id="&lt;Path&gt;" class="s1" d="m104.3 192.1c-8.3 11.6-15.7 23.5-22.2 35.7-6.5 12.1-12 24.6-16 37.3-4.1 12.7-6.8 25.6-7.6 38.4-0.4 6.4-0.4 12.8 0.1 19.2q0.8 9.5 3 18.8c0.1 0.8 0.3 1.6 0.5 2.4l0.6 2.3 0.6 2.3c0.2 0.8 0.5 1.5 0.7 2.3 0.6 1.5 0.9 3.1 1.5 4.6l1.7 4.5c2.3 6 5.1 11.9 8.1 17.7 3.1 5.7 6.6 11.4 10.2 16.9l2.9 4.1 1.4 2.1 1.5 2 3 4 3.2 4c8.4 10.6 17.7 20.7 27.6 30.5 2.5 2.5 4.9 4.9 7.5 7.4l7.6 7.2c2.6 2.4 5.1 4.9 7.7 7.3 2.7 2.4 5.3 4.8 7.9 7.3-3.4-1.3-6.6-2.7-9.9-4.2-3.3-1.5-6.5-3.1-9.7-4.7-3.2-1.6-6.3-3.4-9.5-5.1-1.6-0.9-3.1-1.9-4.6-2.8l-4.7-2.8c-12.2-7.7-23.7-16.7-34.4-26.9-5.3-5-10.3-10.5-15.1-16.2-2.3-3-4.7-5.8-6.8-8.9-1.1-1.6-2.2-3.1-3.2-4.7l-3.1-4.7c-3.9-6.5-7.4-13.3-10.4-20.3-1.5-3.6-2.9-7.1-4-10.8-0.3-0.9-0.6-1.8-0.9-2.8l-0.8-2.7c-0.5-1.9-1-3.8-1.4-5.6-1.7-7.6-2.8-15.3-3.2-23-0.4-7.7-0.1-15.4 0.9-23 2-15.2 6.5-29.9 12.9-43.4 6.5-13.4 14.7-25.8 24.2-36.9 4.7-5.5 9.7-10.8 15.1-15.6 5.4-4.8 11-9.4 17.1-13.2z"/>
			<path id="&lt;Path&gt;" class="s2" d=""/>
			<path id="&lt;Compound Path&gt;" fill-rule="evenodd" class="s1" d="m522.1 314.7c-2 18.6-6.7 36.9-13.6 54.3-3.5 8.6-7.5 17.1-12.1 25.3-2.4 4-4.8 8-7.5 11.9-0.7 1-1.4 2-2.1 2.9l-1 1.4-1 1.4q-2.2 2.8-4.4 5.5c-11.9 14.5-25.6 27.4-40.5 38.7-14.9 11.3-31.1 20.9-48.4 28.3-17.2 7.3-35.4 12.4-54 15-4.6 0.6-9.3 1.1-13.9 1.4-4.7 0.3-9.4 0.5-14.1 0.5q-14 0.1-27.9-0.9c-18.6-1.3-37.1-4-55.2-8.7-18.1-4.8-35.7-11.5-52.1-20.7-8.1-4.5-15.9-9.8-23.3-15.6-7.3-5.8-14.2-12.2-20.5-19.2-6.2-7-11.8-14.6-16.7-22.7q-3.6-6-6.6-12.4-1.4-3.2-2.7-6.5c-0.8-2.2-1.6-4.3-2.2-6.7-3.8-8.2-6-17.1-6.7-26.1-0.7-9.1 0-18.2 1.6-27q1.2-6.7 3-13.2c1.3-4.3 2.7-8.5 4.2-12.7 3.1-8.5 6.8-16.6 10.8-24.6 8.1-15.9 17.7-31 28.1-45.5q7.7-10.9 16.2-21.2c5.6-6.9 11.3-13.7 17.4-20.2 0.5-0.5 1.3-0.6 1.8-0.1 0.5 0.4 0.5 1.1 0.1 1.6v0.2c-5.3 7.1-10.5 14.3-15.4 21.6-4.9 7.4-9.7 14.8-14.2 22.3q-6.8 11.3-12.8 23c-4 7.7-7.7 15.5-11 23.4-6.7 15.8-11.9 32-13.8 48-1 7.9-1 15.7-0.1 23.1 1.1 7.3 3.2 14.2 6.5 20.3l1 2.8c-0.1-0.2 0-0.1 0-0.1v0.1l0.1 0.2 0.2 0.6 0.5 1.2q0.5 1.3 1.1 2.6c0.8 1.8 1.7 3.6 2.6 5.4 1.9 3.5 3.9 7 6.2 10.4 4.5 6.8 9.7 13.2 15.5 19.1 5.7 5.9 11.9 11.3 18.6 16.2 6.6 4.8 13.7 9.1 21.1 13 14.7 7.8 30.7 13.2 47.2 17.2 8.3 2 16.7 3.5 25.3 4.6 8.5 1.2 17.1 1.9 25.8 2.4 2.2 0.2 4.4 0.3 6.5 0.3q3.3 0.2 6.6 0.2c2.2 0.1 4.4 0.1 6.6 0.1h3.2 1.7l1.6-0.1c4.1 0 8.3-0.3 12.4-0.6 2.1-0.2 4.1-0.4 6.2-0.6l3.1-0.4 3-0.4c16.4-2.4 32.4-6.9 47.7-13.5 15.2-6.5 29.8-15 43.3-25 6.7-5.1 13.3-10.4 19.4-16.2 5-4.6 9.8-9.4 14.2-14.4-13.5 6.1-28.3 10.4-44.3 12.9q-0.1 0.1-0.1 0.2c-1.5 1.7-3.1 3.4-4.6 5.1l-2.3 2.5-1.1 1.2-1.2 1.2c-3.2 3.2-6.3 6.4-9.7 9.4l-2.5 2.3q-1.2 1.1-2.5 2.2l-5.2 4.4c-1.7 1.4-3.5 2.8-5.3 4.1q-2.6 2.1-5.3 4.1c9.4-11.5 18.4-23.1 26.6-35.1q-9.7 0.9-19.9 0.9-0.5 0-1 0c-9.7-0.1-18.8-0.7-27-1.6q-2.9 4.2-5.9 8.4c-9.9 13.6-20.7 26.6-32.5 38.5 2.2-3.6 4.4-7.1 6.7-10.7l6.5-10.6 6.3-10.8c2.1-3.6 4.2-7.1 6.1-10.8q1.5-2.6 2.9-5.2c-18.2-2.7-30.2-6.3-31-6.5l4.9-15.9c0.2 0.1 13.9 4.2 34.1 6.7q5.7-11.6 10.6-23.5c6.2-15.1 11.5-30.6 15.5-46.3q0.3-1.1 0.6-2.3c-18.2-1.9-37.4-6.4-57.5-13.4l5.5-15.6q29.5 10.2 55.5 12.8 0.4-2.6 0.9-5.2c1.4-8 2.3-16 2.9-24.1 0.7-8 0.9-16.1 0.7-24.1-0.1-8.1-0.6-16.1-1.5-24.1q-0.8-7.9-2.2-15.7-8.9-0.5-18.2-2.2c-37-6.7-63.5-23.6-64.7-24.4l9.2-18.7c0.3 0.2 26.7 16.9 59.8 22.8q4.7 0.8 9.3 1.3-1.4-5.4-2.9-10.7c-4.7-15.5-10.9-30.7-18.2-45.5q-5.5-11-11.9-21.6-3.2-5.4-6.7-10.5-3.4-5.3-7.3-10.2c6.4 5.4 12.3 11.5 17.7 18 5.5 6.4 10.5 13.2 15.2 20.3 9.4 14.1 17.3 29.4 23.5 45.3q2.9 7.7 5.3 15.6 14.2-0.3 26.8-4.3-5.9-12.7-12.9-25c-8.6-15-18.4-29.4-29.3-43.1-1.3-1.7-2.7-3.4-4.1-5.1-1.4-1.6-2.8-3.3-4.2-5-2.9-3.3-5.8-6.5-8.9-9.7-3-3.2-6.1-6.3-9.4-9.2q-4.8-4.5-10.3-8.4c8.4 3.2 16.2 8 23.5 13.2 7.3 5.3 14.3 11.2 20.9 17.4 13.2 12.4 25.1 26.3 35.5 41.2q2 2.8 3.8 5.7c1.3 1.9 2.5 3.8 3.7 5.8 1.3 1.9 2.4 3.9 3.6 5.9 1.2 1.9 2.2 3.9 3.4 5.9q0.8 1.5 1.5 3 15.1-8.8 27.2-24c-4.9-6.4-10.3-12.5-15.9-18.4-6.1-6.3-12.6-12.4-19.4-18.1-6.8-5.7-14-11.1-21.5-16-7.4-4.9-15.2-9.6-23.2-13.6-16.2-8-33.5-14.3-51.5-18.3h-0.1c-0.7-0.2-1.1-0.9-1-1.5 0.2-0.7 0.8-1.1 1.4-1 18.5 2.2 36.7 6.8 54 13.8 17.3 7 33.7 16.2 48.8 27.1 15.1 11 29 23.6 41.1 37.9q2.3 2.6 4.4 5.4c0.4 0.5 0.7 0.9 1.1 1.5l1 1.5 1.9 2.9c1.3 2 2.5 4 3.7 5.9 1.3 2 2.4 4 3.6 6 4.7 8.1 8.9 16.4 12.7 25 3.8 8.5 7.1 17.3 9.8 26.2 2.7 9 4.8 18.1 6.4 27.3 3 18.5 3.6 37.3 1.5 56zm-76.9-106.9q0.6 1.6 1.3 3.2c3.6 8.5 6.5 17.3 9.1 26.2 2.4 8.9 4.3 18 5.7 27.3 1.2 9.2 1.9 18.5 1.9 27.9q0 3-0.1 6.1 1.1-0.6 2.2-1.3c20.1-12.6 31.2-28.6 35.6-35.9-2.2-16.6-6.5-33.1-12.8-49q-4.6-12.1-10.7-23.8-1.2-2.5-2.6-5c-8.8 10.1-18.8 18.2-29.6 24.3zm-43.3 78.7c-0.7 8.6-1.7 17.1-3.3 25.6q-0.2 1.6-0.6 3.2 23.9 0 44.4-7.1 0.5-7.9 0.3-15.7c-0.1-8.4-0.8-16.8-2-25.2-2.4-17.5-7.1-34.8-13.4-51.6q-14 4.7-29.5 5.6 1.4 6.8 2.4 13.6c2.5 17.1 3.1 34.4 1.7 51.6zm-20.6 118.2q16.4 0 31.1-2.3 0.2-0.3 0.4-0.7l1.7-2.8 1.5-2.8c1-1.9 2.1-3.8 3-5.8 4-7.6 7.4-15.5 10.5-23.5 5-13.2 8.7-26.8 10.9-40.7q-12.9 3.7-26.9 5-7.5 0.7-15.4 0.7-1.9 0-3.9 0l-1.5 5.4c-2.5 8.2-5.1 16.3-8.4 24.2-1.5 4-3.2 7.9-4.9 11.8-0.9 2-1.8 3.9-2.7 5.8-1 1.9-1.8 3.9-2.8 5.7q-5 9.9-10.6 19.3c5.5 0.4 11.4 0.7 17.6 0.7q0.2 0 0.4 0zm121.2-117.6c-6.7 7.6-15.8 16.1-27.6 23.6q-6.5 4.2-13.6 7.5-0.1 1.1-0.3 2.1c-1.4 9.2-3.5 18.3-6.3 27.2-0.7 2.2-1.4 4.4-2.2 6.6-0.8 2.2-1.6 4.4-2.4 6.5l-2.7 6.4-2.9 6.3c-1 2.1-2.1 4.1-3.2 6.2l-1.6 3q-0.8 1.5-1.7 3c-1.2 2-2.3 4-3.5 6l-3.7 5.8q-0.5 0.7-1.1 1.5c20.3-5.4 37.7-14.5 52.3-27.2q2.7-5.5 5.2-11.2c6.4-15.4 11.1-31.6 13.4-48.2q1.8-12.5 1.9-25.1z"/>
			<path id="&lt;Compound Path&gt;" fill-rule="evenodd" class="s0" d="m300.7 167.1c4-2.1 8-4.3 11.8-6.7 3.7-2.1 7.3-4.4 10.8-6.8q-3.7-0.7-7.4-1.5-5.8-1.2-11.6-2.6-2.8-0.7-5.7-1.4c-0.2 2.4-1.4 4.7-3.4 6.2-8.9 6.5-18.5 11.2-28.2 15-9.6 3.8-19.5 6.5-29.4 8.9-9.8 2.3-19.8 4.1-29.7 5.5l-7.5 1-7.4 0.8-7.5 0.8-7.5 0.6c-10 0.8-19.9 1.2-29.9 1.5-10 0.2-19.9 0.2-29.9-0.1-10.2-0.5-20.4-1.1-30.3-1.6l-14.7-0.9-14.3-0.8 15.3-0.8 14.9-0.8 29.1-1.6c19.6-1.2 39.2-3.3 58.6-6.1l7.2-1.1 7.2-1.2 7.3-1.3 7.1-1.4c9.6-2 19-4.3 28.3-6.9 9.2-2.7 18.3-5.9 26.9-9.6 6.1-2.7 11.9-5.8 17.3-9.2l-9.3-15.3c-2.2-3.6-1.5-8.1 1.2-11l0.3-0.2c11.7-12.1 23.5-24.1 35.3-36.1l29.4-29.7q-0.5-0.5-0.9-1c-2.1-2.4-4.5-4.5-7-6.5-2.4-2-5.1-3.7-7.9-5.4-1.4-0.7-2.8-1.5-4.3-2.2l-2.2-1-2.2-0.8c-6-2.3-12.5-3.8-19.1-4.5-6.6-0.7-13.4-0.5-20.2 0.1l-5.1 0.7c-1.7 0.2-3.5 0.6-5.2 0.8l-2.5 0.5-2.6 0.6-5.1 1.2-5.1 1.4c-1.7 0.5-3.4 1-5.1 1.6-3.3 1.1-6.7 2.2-10 3.5l-5 2c-1.7 0.6-3.3 1.4-4.9 2.1l-5 2.2c-1.6 0.7-3.3 1.6-5 2.4l-5 2.4c-1.7 0.8-3.5 1.5-5.2 2.2l-10.3 4.4-41.4 17.4-41.5 17.1q-41.2 16.8-82.6 33.2 0 0-0.1 0.1-0.4 0.4-0.9 0.9-0.9 0.9-1.7 1.9c-1 1.4-2 2.8-2.7 4.1-0.7 1.4-1.1 2.7-1.2 3.8 0 1 0.2 1.7 0.8 2.5 0.7 0.9 1.9 1.7 3.3 2.4 1.5 0.7 3.1 1.3 4.9 1.6 3.5 0.9 7.2 1.3 10.9 1.5l17.9-2.5h0.3c1.1-0.2 2.2 0.6 2.4 1.8q0 0.1 0 0.3l0.1 9.5c0.1 3.2 0 6.5 0 9.8q0.1 9.9 0.3 20.2-1.2-9.3-2.4-19.2c-0.4-3.2-0.9-6.6-1.3-9.9l-0.9-7.5-15.7 3.9q-0.1 0-0.3 0h-0.3c-4.1 0.1-8.2 0-12.4-0.6-2.1-0.3-4.3-0.8-6.5-1.5-2.2-0.9-4.5-2-6.5-4.1l-0.7-0.8-0.7-0.9c-0.4-0.6-0.8-1.3-1.1-2-0.3-0.7-0.5-1.5-0.7-2.2-0.1-0.7-0.2-1.5-0.2-2.2-0.1-2.9 0.6-5.5 1.5-7.7 0.9-2.2 2-4.2 3.3-6q0.9-1.4 2-2.7 0.5-0.7 1-1.3c0.4-0.4 0.7-0.8 1.2-1.3q0.5-0.6 1.2-0.9l0.3-0.2q40.4-19.4 80.9-38.3l40.6-18.8 40.7-18.6 10.2-4.6c1.7-0.7 3.4-1.5 5.1-2.3l5-2.6c1.7-0.8 3.3-1.7 5-2.5l5.3-2.5c1.8-0.8 3.5-1.6 5.3-2.4l5.4-2.2c3.6-1.5 7.3-2.7 11-4.1 1.8-0.6 3.7-1.2 5.6-1.8l5.7-1.7 5.8-1.4q1.4-0.4 2.9-0.7l2.9-0.6c2-0.3 3.9-0.7 5.9-1l6-0.8c8-0.8 16.2-1.1 24.5-0.3 8.2 0.8 16.5 2.6 24.4 5.7l3 1.2 2.9 1.3c1.9 0.9 3.8 2 5.6 3 3.7 2.1 7.3 4.5 10.6 7.2 3.4 2.7 6.5 5.6 9.4 8.8 0.7 0.9 1.4 1.7 2.1 2.5q1 1.3 2 2.6 1 1.4 2 2.8c0.3 0.5 0.6 1 0.9 1.5l0.5 0.8c0.2 0.3 0.3 0.5 0.6 1 2.1 4.1 1.2 8.9-1.9 12l-36.1 35.3c-10.4 10.1-20.8 20.2-31.2 30.3l9.1 16.2 0.2 0.4q0.6 1.2 0.9 2.4 3.1-0.3 6.1-0.6 5.9-0.5 11.8-0.9 5.9-0.4 11.8-0.7l5.9-0.2 5.9-0.1c3.5-0.1 6.5 2.6 6.6 6.2 0 1.6-0.6 3.1-1.6 4.3l-0.6 0.8-1.4 1.5-1.2 1.4q-1.3 1.5-2.6 2.8-2.7 2.7-5.4 5.2c-3.7 3.3-7.5 6.5-11.4 9.5q-6 4.5-12.2 8.5-3.1 1.9-6.2 3.7 0.5 5.1 0.8 10.1 0.3 8.2 0.3 16.3c0 4.8-0.1 9.6-0.2 14.4q0.2 0.5 0.5 0.9c2.3-0.8 4.6-1.4 7-1.8 2.5-0.5 5-1 8.5-1.3-0.6 3.4-2.5 6.1-4.7 8.2-1.5 1.3-3.1 2.3-4.7 3.1q1.2 1.6 2.5 3.1c3.4 4.3 7.1 8.4 10.9 12.1 3.9 3.8 8 7.3 12.3 10.2 4.2 2.9 8.8 5.2 13.3 6.2 1.4 0.3 2.6 1.1 3.4 2.2l0.2 0.3 0.1 0.2 0.3 0.4c0.1 0.2 0.2 0.4 0.3 0.6q0.3 0.6 0.6 1.2 0.5 1.2 0.8 2.3c0.4 1.6 0.5 3.2 0.5 4.7 0 3.1-0.8 5.9-1.9 8.3-1.1 2.5-2.5 4.7-3.9 6.6-1.5 2-3.1 3.7-4.8 5.4-3.4 3.1-6.9 5.8-10.6 8.3-2.9 1.9-5.8 3.6-8.7 5.3q-0.2 0.8-0.3 1.5c-0.2 1.1-0.2 2.1-0.1 2.7l0.2 0.1c0.9 0.4 1.8 1 2.5 1.7 1.6 1.4 2.6 3.1 3.2 4.7 1.1 3.2 1 6 0.6 8.5-0.5 2.5-1.4 4.7-2.6 6.9-1.1 1.7-2.5 3.4-4.3 4.9q0 0 0.1 0c1.1 2.8 2.2 6 2 10-0.2 1.9-0.7 4-1.7 5.9-0.9 1.9-2.3 3.5-3.7 4.7-2.4 2.1-4.9 3.2-7.2 4q-0.1 0.1-0.3 0.3-0.4 0.6-0.6 1.2c-0.4 0.9-0.5 1.9-0.3 3.1 0.1 1.1 0.6 2.5 1.2 3.9q0.6 1.1 1.3 2.2l0.8 1.2c0.3 0.6 0.7 1.1 1 1.7 1.4 2.4 2.5 5.2 2.8 8.4 0.3 3.1-0.2 6.4-1.5 9.1-1.2 2.8-2.9 5.1-4.8 7q-1.4 1.4-2.9 2.6-0.8 0.6-1.6 1.2l-0.8 0.5-0.5 0.3-0.5 0.3h-0.1q-0.3 0.2-0.7 0.3c-0.5 0.2-0.6 0.3-0.9 0.3l-0.8 0.2q-0.6 0.2-1.3 0.3-1.4 0.3-2.6 0.5-2.6 0.3-5.2 0.4-5 0.2-9.9-0.4c-6.6-0.8-12.9-2.3-18.9-4.3q-9.1-3.1-17.5-7.5-2.1-1.1-4.1-2.3l-2-1.1c-0.6-0.3-1.2-0.7-1.9-1-2.4-1.2-5-2.2-7.7-2.9-5.4-1.4-11.1-1.5-16.7-0.6-5.7 0.9-11.3 2.9-16.6 5.5-5.3 2.7-10.4 5.9-15.2 9.6-4.9 3.6-9.5 7.6-13.7 12 1.8-2.5 3.7-4.8 5.7-7.2 2.1-2.3 4.2-4.5 6.4-6.6 4.5-4.3 9.3-8.2 14.7-11.6 5.3-3.3 11.1-6.1 17.4-7.7 6.2-1.6 13-2 19.6-0.8 3.3 0.6 6.5 1.6 9.6 2.8 0.7 0.4 1.5 0.7 2.2 1.1l2.1 0.9q2 1 4.1 1.9c5.4 2.3 10.9 4.3 16.5 5.9 5.6 1.5 11.3 2.6 17 2.9 2.8 0.2 5.6 0.2 8.3 0q2-0.2 4-0.5 0.9-0.2 1.8-0.4l0.9-0.2 0.1-0.1 0.5-0.3q0.4-0.4 0.9-0.7 0.9-0.8 1.7-1.6c1-1.1 1.8-2.3 2.2-3.4 0.5-1.1 0.6-2.1 0.4-3.1-0.1-1-0.6-2.2-1.3-3.5-0.1-0.3-0.4-0.6-0.6-0.9l-0.9-1.4q-1.1-1.5-2-3.2c-1.2-2.3-2.2-4.9-2.7-7.9-0.4-2.9-0.2-6.3 0.9-9.3 0.6-1.6 1.3-3 2.3-4.3q0.7-1 1.5-1.9 0.4-0.5 0.9-0.9l0.5-0.5 0.3-0.2 0.2-0.1 0.3-0.2q0.7-0.6 1.6-0.9h0.2c1.7-0.5 3.2-1.3 3.8-1.9 0.4-0.3 0.5-0.6 0.6-0.8 0.1-0.2 0.2-0.4 0.2-0.9 0.1-0.7-0.2-2.2-0.9-3.7q-0.5-1.2-1.2-2.4-0.4-0.6-0.8-1.1l-0.4-0.6-0.3-0.4c-2.3-2.9-1.7-7.1 1.2-9.4 1.2-0.9 2.5-1.4 3.9-1.4h0.4c0.2 0 0.3 0 0.7-0.3 0.4-0.2 0.9-0.8 1.4-1.5 0.4-0.8 0.8-1.7 0.9-2.5 0.1-0.4 0.1-0.8 0.1-1.1q-0.4-0.2-0.9-0.5c-1.5-1-3-2.4-3.9-4-0.9-1.5-1.4-3.1-1.7-4.5-0.5-2.9-0.3-5.2 0.1-7.3q0.2-1.7 0.7-3.2 0.2-0.7 0.4-1.5l0.2-0.7c0.1-0.3 0.2-0.5 0.4-0.9 0.6-1.5 1.7-2.7 3-3.4 3.5-1.8 7-3.7 10.2-5.8 3.2-2.1 6.3-4.4 8.9-6.8 2.7-2.4 4.9-5.1 6.1-7.7 0.7-1.3 1-2.5 1-3.6q0-0.4 0-0.8c-5.2-1.9-9.8-4.6-13.9-7.6-4.9-3.6-9.3-7.7-13.3-12q-6-6.5-11.2-13.6-2.4-3.4-4.7-6.9-0.8 0-1.6 0c-1.5-0.2-3-0.4-4.4-0.9-1.5-0.5-2.9-1.1-4.3-2.1 2-1.7 4-2.9 5.9-4q-0.2-0.3-0.5-0.7l-0.1-0.3c-0.5-0.7-0.6-1.6-0.5-2.4q1-7.9 1.9-15.9c0.6-5.3 1.2-10.6 1.6-15.8q0.4-3.9 0.6-7.8-1.3 0.8-2.6 1.5c-17.6 9.2-36.9 15.5-56.5 18.5-19.7 3-39.8 2.6-59.1-1-9.7-1.8-19.2-4.3-28.3-7.6-9.1-3.4-17.9-7.3-26.3-12.2 19.1 2.8 37.6 5.2 56.1 5.5 18.3 0.4 36.5-1.1 54.1-4.6 17.6-3.5 34.8-9 51.2-16.5q5.1-2.3 10.1-4.8c0.5-0.3 1.5-0.8 2.1-1.1zm3.1 235.2c0.1 0 0.1 0 0 0zm12.2-32.8q0 0 0 0zm4.8-39h-0.1q0 0 0 0 0 0 0.1 0zm5.2-12.1q0 0 0 0-0.1 0-0.1 0zm0 0q0 0 0 0z"/>
		</g>
	</g>
</svg>